#!OML:ASF E:/inclinewalkrobotboard/Project1/Captureday1/Session1/subject1.ASF
:FULLY-SPECIFIED
:DEGREES
26
root 0 0 0 1.7957401641222848 -10.22887222402527 0.9120763107252897
lowerback 0.17781945836516289 -1.5900900674369158 -2.649762390185215
upperback -0.48762082251445893 -2.070385270000823 1.9540265282997904
thorax -0.5028300676582134 -1.0357260313590322 3.437641062894983
lowerneck -25.834220263321033 -1.8312211532062692 -7.467865123208239
upperneck 23.282264286618695 -0.10069991861822791 2.5222459558599515
head 12.0793520479572 -0.5254571068910028 2.283062292211787
rclavicle 1.783616561120767E-15 -6.04303684492253E-16
rhumerus -32.20323676346387 -4.366782150817501 -80.88486316716255
rradius 30.500880789343842
rwrist 19.316400915020054
rhand -17.61717782261383 9.187367285940852
rfingers 7.125019999999929
rthumb 8.635664410565429 -20.55742155452547
lclavicle -3.2271541891561788E-15 2.7086572898022367E-15
lhumerus -22.99097867371366 -3.732538086420343 92.59713076641484
lradius 62.42140349654054
lwrist 2.442289725719349
lhand -28.28983324283289 20.996502672888997
lfingers 7.12502000000001
lthumb -1.6944100505542021 51.0053920144797
rfemur 1.2066498454812393 8.884435975293735 38.89853928462237
rtibia 18.091861124475535
rfoot -23.91709903579862 -8.401356386850027
rtoes 6.698751043248114
lfemur -23.830149838206864 2.7256201393621486 -12.314148391058742
ltibia 56.264396136288866
lfoot -2.4307596244200287 -3.843195484952263
ltoes -7.7675612258061255
27
root 0 0 0 1.808125590047361 -10.242083024027027 0.9273775398388109
lowerback 0.0977093614202964 -1.582819453615783 -2.67081776267341
upperback -0.5035395708878851 -2.065776907411896 1.9164334937231808
thorax -0.47686814364053853 -1.0305621636983722 3.4063660801965217
lowerneck -25.90112341141335 -1.9011289658595287 -7.512914674659738
upperneck 23.39098718832661 -0.20954558603302076 2.604153919527601
head 12.127356921758874 -0.5700637175295029 2.304577214402312
rclavicle -3.1983259011141718E-15 -9.09172316836814E-16
rhumerus -30.96528594998973 -2.190831459173586 -82.12265862292466
rradius 31.594861071173305
rwrist 18.464500070682913
rhand -18.150025160181116 9.302142382910286
rfingers 7.1250199999999335
rthumb 8.12077273915027 -20.464671726073913
lclavicle -4.462584886576993E-15 2.550333077970795E-15
lhumerus -22.48214677608216 -2.9098630734663837 92.3872851155567
lradius 62.00202504777405
lwrist 2.307827413296824
lhand -28.335513597786623 20.811860839164357
lfingers 7.125020000000009
lthumb -1.7421076030535696 50.81151456149672
rfemur 6.671168877524185 8.736222042056434 38.46652353844685
rtibia 21.138943723638462
rfoot -24.05941850575145 -7.680261803820587
rtoes 3.0403597392582586
lfemur -28.91282605155773 1.2485728313950961 -11.081354818836562
ltibia 46.266098585268224
lfoot -4.479151496390909 -0.43489462108563703
ltoes -5.84007626258661
28
root 0 0 0 1.81148956652088 -10.271580059380717 0.9352935219437059
lowerback 0.03841577324504564 -1.5825724600023858 -2.682424186303295
upperback -0.5191741303175299 -2.0674856593271906 1.8863746971976414
thorax -0.4613165597775779 -1.029725104753737 3.3796771585585725
lowerneck -25.91377601787883 -1.930410686196142 -7.5417780458493855
upperneck 23.568526715806346 -0.25092586355931756 2.622473186666246
head 12.192704378431205 -0.593214844084672 2.3112928973246674
rclavicle -3.122284856393373E-15 -1.710545910498447E-15
rhumerus -30.52104154821706 -0.8911850653542803 -82.40771435178058
rradius 31.935606828623087
rwrist 18.13564374775514
rhand -18.425351176648306 9.336447037264929
rfingers 7.125019999999938
rthumb 7.854671256764373 -20.439879545311147
lclavicle -5.047700097865915E-15 2.3910894647092543E-15
lhumerus -22.182395658278306 -2.391924815651924 92.23054561407966
lradius 61.760061936540005
lwrist 2.2854765848346466
lhand -28.31067796599106 20.76153849423722
lfingers 7.125020000000008
lthumb -1.7217674792841926 50.759428403644044
rfemur 10.793964784104656 8.578964992627935 37.85541401128951
rtibia 23.80553440049432
rfoot -22.950679708610117 -6.642866265661773
rtoes -0.33563472056196364
lfemur -32.080705375913205 -1.3573423365002917 -9.956640797190062
ltibia 33.69502163207309
lfoot -4.740181188337684 2.396613189842691
ltoes -3.155628958194302
29
root 0 0 0 1.811125460819451 -10.302850583594637 0.9376400879469511
lowerback -0.01779108968887444 -1.581602701032163 -2.695377563580801
upperback -0.5417457194053632 -2.066920404778023 1.8548154794310303
thorax -0.4549097328968321 -1.0277471537382399 3.352759082119796
lowerneck -25.84292412126597 -1.9341520780633463 -7.572429098901887
upperneck 23.854147276193824 -0.25748795314029504 2.616410406128899
head 12.284981342856739 -0.606592744145578 2.3161759671834075
rclavicle -2.1471093854945243E-15 -2.2718926290342996E-15
rhumerus -30.4155275759773 -0.35719612562749603 -82.39113703097694
rradius 31.9819810884114
rwrist 18.022849449513267
rhand -18.53840417347335 9.367407953212012
rfingers 7.125019999999939
rthumb 7.74460966186086 -20.40924800755885
lclavicle -5.194332995830677E-15 2.334539056698517E-15
lhumerus -21.92143676152556 -1.7747413370502119 92.1188523407973
lradius 61.55903958903688
lwrist 2.2055051513595183
lhand -28.31633697706614 20.74541737349647
lfingers 7.125020000000009
lthumb -1.7283149926602315 50.74004212993709
rfemur 14.889329752408187 8.070529051622028 36.54026766237233
rtibia 28.695367646385822
rfoot -19.606965328316306 -4.816850233150672
rtoes -4.62119208022185
lfemur -31.893299482180623 -4.124665312658127 -8.960032024768921
ltibia 24.290432061474824
lfoot -3.9568149269242987 3.932658074235641
ltoes -2.271741018307015
30
root 0 0 0 1.8083226834742043 -10.33543678103186 0.936987711294095
lowerback -0.07284709385815691 -1.5821300889172139 -2.7090024899259886
upperback -0.565681726165471 -2.067293009748251 1.8222193566782448
thorax -0.4511889758793085 -1.026394386473806 3.3253636750682896
lowerneck -25.713166134179723 -1.921428670894251 -7.607742208634594
upperneck 24.25260725917392 -0.24026891337154022 2.58949742113832
head 12.408279948277174 -0.6148088448721543 2.319150568493437
rclavicle -2.811347492059383E-15 -2.394533070683968E-15
rhumerus -30.457997115728073 -0.223552819348531 -82.25370899369955
rradius 31.89482811167862
rwrist 17.99058501715444
rhand -18.579151132026585 9.418621755342926
rfingers 7.125019999999936
rthumb 7.7046575760465785 -20.355970727442205
lclavicle -6.597818806821276E-15 2.365300688702391E-15
lhumerus -21.615991643502745 -1.1395813579751288 92.01575378723787
lradius 61.35576613424071
lwrist 2.0580786547873515
lhand -28.38881465675105 20.70594985065909
lfingers 7.12502000000001
lthumb -1.7954063215706686 50.692978551196404
rfemur 15.829164654041076 6.91972335606728 34.375554584742275
rtibia 35.296519048420755
rfoot -14.246267471880035 -2.7894996055067427
rtoes -6.580826609396474
lfemur -30.893145366815002 -4.801852076374808 -8.958688474543264
ltibia 22.54356714340443
lfoot -3.800598528591105 3.870900789017724
ltoes -2.5702737921590533
